<svg xmlns="http://www.w3.org/2000/svg" viewBox="0 0 512 512" width="512" height="512">
	<path class="icon-state-normal"
		d="M256,65.3c105.3,0,190.7,85.4,190.7,190.7S361.3,446.7,256,446.7S65.3,361.3,65.3,256S150.7,65.3,256,65.3z
		M256,435.3c99,0,179.3-80.3,179.3-179.3S355,76.7,256,76.7S76.7,157,76.7,256S157,435.3,256,435.3z M290.8,318.8l-2.4,10.1
		c-7.1,2.9-12.8,5.2-17.1,6.7c-4.2,1.5-9.2,2.3-14.8,2.3c-8.6,0-15.4-2.2-20.2-6.6c-4.8-4.4-7.2-10-7.2-16.7c0-2.6,0.2-5.3,0.5-8
		c0.4-2.7,0.9-5.8,1.7-9.3l8.9-32.9c0.8-3.1,1.5-6.1,2-9c0.5-2.8,0.8-5.4,0.8-7.7c0-4.2-0.8-7.1-2.5-8.8c-1.7-1.6-4.8-2.5-9.5-2.5
		c-2.3,0-4.7,0.4-7.1,1.1c-2.4,0.7-4.5,1.5-6.2,2.1l2.4-10.1c5.8-2.5,11.4-4.6,16.8-6.4c5.3-1.8,10.4-2.6,15.2-2.6
		c8.6,0,15.2,2.2,19.9,6.5c4.6,4.3,7,9.9,7,16.8c0,1.4-0.2,3.9-0.5,7.5c-0.3,3.6-0.9,6.9-1.8,9.9l-8.9,32.8c-0.7,2.6-1.4,5.6-2,9
		c-0.6,3.4-0.9,5.9-0.9,7.7c0,4.3,0.9,7.3,2.8,8.9c1.9,1.6,5.1,2.4,9.7,2.4c2.2,0,4.6-0.4,7.3-1.2
		C287.6,320.1,289.6,319.4,290.8,318.8z M293.1,181.3c0,5.7-2.1,10.6-6.2,14.6c-4.1,4-9.1,6-15,6c-5.9,0-10.9-2-15-6
		c-4.2-4-6.3-8.9-6.3-14.6c0-5.7,2.1-10.6,6.3-14.6c4.2-4.1,9.2-6.1,15-6.1c5.8,0,10.8,2,15,6.1C291,170.8,293.1,175.6,293.1,181.3z"/>
	<path class="icon-state-hover" 
		d="M256,65.3C150.7,65.3,65.3,150.7,65.3,256S150.7,446.7,256,446.7S446.7,361.3,446.7,256S361.3,65.3,256,65.3z M288.4,329
		c-7.1,2.9-12.8,5.2-17.1,6.7c-4.2,1.5-9.2,2.3-14.8,2.3c-8.6,0-15.4-2.2-20.2-6.6c-4.8-4.4-7.2-10-7.2-16.7c0-2.6,0.2-5.3,0.5-8
		c0.4-2.7,0.9-5.8,1.7-9.3l8.9-32.9c0.8-3.1,1.5-6.1,2-9c0.5-2.8,0.8-5.4,0.8-7.7c0-4.2-0.8-7.1-2.5-8.8c-1.7-1.6-4.8-2.5-9.5-2.5
		c-2.3,0-4.7,0.4-7.1,1.1c-2.4,0.7-4.5,1.5-6.2,2.1l2.4-10.1c5.8-2.5,11.4-4.6,16.8-6.4c5.3-1.8,10.4-2.6,15.2-2.6
		c8.6,0,15.2,2.2,19.9,6.5c4.6,4.3,7,9.9,7,16.8c0,1.4-0.2,3.9-0.5,7.5c-0.3,3.6-0.9,6.9-1.8,9.9l-8.9,32.8c-0.7,2.6-1.4,5.6-2,9
		c-0.6,3.4-0.9,5.9-0.9,7.7c0,4.3,0.9,7.3,2.8,8.9c1.9,1.6,5.1,2.4,9.7,2.4c2.2,0,4.6-0.4,7.3-1.2c2.7-0.8,4.7-1.5,5.9-2.1L288.4,329
		z M286.9,195.9c-4.1,4-9.1,6-15,6c-5.9,0-10.9-2-15-6c-4.2-4-6.3-8.9-6.3-14.6c0-5.7,2.1-10.6,6.3-14.6c4.2-4.1,9.2-6.1,15-6.1
		c5.8,0,10.8,2,15,6.1c4.2,4.1,6.2,8.9,6.2,14.6C293.1,187,291,191.9,286.9,195.9z"/>
</svg>
